<svg width="51" height="50" viewBox="0 0 51 68" fill="none" xmlns="http://www.w3.org/2000/svg">
<rect x="1" y="1" width="49" height="50" stroke="#029CBE" stroke-width="2"/>
<path d="M42.9302 40.977C43.1254 40.7817 43.1254 40.4651 42.9302 40.2699L39.7482 37.0879C39.5529 36.8926 39.2363 36.8926 39.0411 37.0879C38.8458 37.2831 38.8458 37.5997 39.0411 37.795L41.8695 40.6234L39.0411 43.4518C38.8458 43.6471 38.8458 43.9637 39.0411 44.1589C39.2363 44.3542 39.5529 44.3542 39.7482 44.1589L42.9302 40.977ZM20.9016 41.1234H42.5766V40.1234H20.9016V41.1234Z" fill="#029CBE"/>
<path d="M9.67921 40.2699C9.48395 40.4651 9.48395 40.7817 9.67921 40.977L12.8612 44.1589C13.0565 44.3542 13.373 44.3542 13.5683 44.1589C13.7636 43.9637 13.7636 43.6471 13.5683 43.4518L10.7399 40.6234L13.5683 37.795C13.7636 37.5997 13.7636 37.2831 13.5683 37.0879C13.373 36.8926 13.0565 36.8926 12.8612 37.0879L9.67921 40.2699ZM31.7078 40.1234H10.0328V41.1234H31.7078V40.1234Z" fill="#029CBE"/>
<path d="M42.2855 32.1455C42.4807 32.3409 42.7973 32.3411 42.9927 32.146L46.1767 28.9663C46.3721 28.7711 46.3723 28.4545 46.1771 28.2591C45.982 28.0637 45.6654 28.0635 45.47 28.2586L42.6398 31.085L39.8132 28.2546C39.618 28.0592 39.3014 28.059 39.1061 28.2541C38.9107 28.4492 38.9105 28.7658 39.1056 28.9612L42.2855 32.1455ZM42.1489 16.7788L42.1393 31.7918L43.1393 31.7925L43.1489 16.7795L42.1489 16.7788Z" fill="#029CBE"/>
<path d="M43.0362 6.71202C42.8414 6.51641 42.5248 6.51584 42.3291 6.71075L39.1402 9.88703C38.9445 10.0819 38.9438 10.3985 39.1386 10.5941C39.3335 10.7898 39.6501 10.7903 39.8457 10.5954L42.6803 7.77204L45.5026 10.6055C45.6974 10.8011 46.014 10.8017 46.2097 10.6068C46.4054 10.4119 46.4061 10.0953 46.2112 9.89968L43.0362 6.71202ZM43.1393 26.5656L43.1819 7.06583L42.1819 7.06404L42.1393 26.5638L43.1393 26.5656Z" fill="#029CBE"/>
</svg>
