<svg width="328" height="125" viewBox="0 0 328 125" fill="none" xmlns="http://www.w3.org/2000/svg">
<rect x="1" y="24" width="102" height="62.3896" rx="4" stroke="#515151" stroke-width="2"/>
<line y1="-1" x2="64.3954" y2="-1" transform="matrix(0.0121203 0.999927 -0.999908 0.0135589 73.0579 23)" stroke="#515151" stroke-width="2"/>
<rect x="79.5744" y="60.0455" width="18.7686" height="21.6234" rx="1.5" stroke="#515151"/>
<line x1="79.0744" y1="31.5714" x2="98.843" y2="31.5714" stroke="#515151" stroke-width="2"/>
<line x1="79.0744" y1="36.7922" x2="98.843" y2="36.7922" stroke="#515151" stroke-width="2"/>
<line x1="79.0744" y1="42.013" x2="98.843" y2="42.013" stroke="#515151" stroke-width="2"/>
<line x1="79.0744" y1="47.2338" x2="98.843" y2="47.2338" stroke="#515151" stroke-width="2"/>
<line x1="79.0744" y1="52.4546" x2="98.843" y2="52.4546" stroke="#515151" stroke-width="2"/>
<rect x="10.814" y="86.1494" width="9.31405" height="3.35065" rx="0.5" stroke="#515151"/>
<rect x="83.8719" y="86.1494" width="9.31405" height="3.35065" rx="0.5" stroke="#515151"/>
<path d="M63.9628 55.6299C63.9628 68.0856 53.7997 78.1883 41.2562 78.1883C28.7126 78.1883 18.5496 68.0856 18.5496 55.6299C18.5496 43.1742 28.7126 33.0714 41.2562 33.0714C53.7997 33.0714 63.9628 43.1742 63.9628 55.6299Z" stroke="#515151"/>
<path d="M58.8058 56.0649C58.8058 65.8864 50.9428 73.8377 41.2562 73.8377C31.5696 73.8377 23.7066 65.8864 23.7066 56.0649C23.7066 46.2435 31.5696 38.2922 41.2562 38.2922C50.9428 38.2922 58.8058 46.2435 58.8058 56.0649Z" stroke="#515151"/>
<path d="M54.5083 56.0649C54.5083 63.4835 48.5694 69.487 41.2562 69.487C33.9431 69.487 28.0042 63.4835 28.0042 56.0649C28.0042 48.6463 33.9431 42.6429 41.2562 42.6429C48.5694 42.6429 54.5083 48.6463 54.5083 56.0649Z" stroke="#515151"/>
<path d="M50.2107 56.0649C50.2107 61.0807 46.1959 65.1364 41.2562 65.1364C36.3165 65.1364 32.3016 61.0807 32.3016 56.0649C32.3016 51.0491 36.3165 46.9935 41.2562 46.9935C46.1959 46.9935 50.2107 51.0491 50.2107 56.0649Z" stroke="#515151"/>
<path d="M45.0537 56.0649C45.0537 58.1974 43.3477 59.9156 41.2562 59.9156C39.1647 59.9156 37.4587 58.1974 37.4587 56.0649C37.4587 53.9325 39.1647 52.2143 41.2562 52.2143C43.3477 52.2143 45.0537 53.9325 45.0537 56.0649Z" stroke="#515151"/>
<line x1="41.1157" y1="52.5844" x2="41.1157" y2="33.4416" stroke="#515151" stroke-width="2"/>
<line x1="41.1157" y1="78.6883" x2="41.1157" y2="59.5455" stroke="#515151" stroke-width="2"/>
<line x1="63.6034" y1="56.1948" x2="44.6943" y2="56.1955" stroke="#515151" stroke-width="2"/>
<line x1="37.8182" y1="56.1948" x2="18.9091" y2="56.1955" stroke="#515151" stroke-width="2"/>
<line y1="-1" x2="19.024" y2="-1" transform="matrix(-0.709692 -0.704512 0.695742 -0.718292 39.2863 52.9352)" stroke="#515151" stroke-width="2"/>
<line y1="-1" x2="19.024" y2="-1" transform="matrix(-0.709692 -0.704512 0.695742 -0.718292 58.1954 71.2079)" stroke="#515151" stroke-width="2"/>
<line y1="-1" x2="19.0366" y2="-1" transform="matrix(-0.670889 0.741558 -0.733291 -0.679915 55.7466 38.6623)" stroke="#515151" stroke-width="2"/>
<line y1="-1" x2="19.0366" y2="-1" transform="matrix(-0.670889 0.741558 -0.733291 -0.679915 37.697 57.8052)" stroke="#515151" stroke-width="2"/>
<line x1="120.706" y1="12.0039" x2="120.49" y2="96.0036" stroke="#029CBE" stroke-width="3"/>
<path d="M130.496 56.648C131.808 56.648 133.888 56.584 136.736 56.456C139.616 56.328 142.224 56.264 144.56 56.264C149.424 56.264 152.896 57.24 154.976 59.192C157.056 61.112 158.096 63.8 158.096 67.256C158.096 69.336 157.376 71.208 155.936 72.872C154.496 74.536 152.608 75.784 150.272 76.616C151.648 78.952 152.928 81.144 154.112 83.192C155.328 85.24 156.208 86.76 156.752 87.752C157.296 88.744 157.792 89.64 158.24 90.44C158.688 91.208 159.008 91.736 159.2 92.024C159.424 92.312 159.632 92.552 159.824 92.744L163.28 93.224C163.408 93.704 163.408 94.296 163.28 95H155.12L147.872 81.848C146.912 80.024 146 78.616 145.136 77.624H144.464C142.832 77.624 141.184 77.528 139.52 77.336V92.888L143.888 93.368C144.016 93.848 144.016 94.44 143.888 95.144C141.872 95.048 139.6 95 137.072 95C135.184 95 132.896 95.032 130.208 95.096C130.016 94.52 130.016 93.944 130.208 93.368L134.192 92.792C134.32 91.576 134.384 89.704 134.384 87.176V58.904L130.496 58.424C130.368 57.944 130.368 57.352 130.496 56.648ZM139.52 64.616V75.368C140.512 75.496 141.952 75.56 143.84 75.56C145.472 75.56 146.864 75.304 148.016 74.792C149.2 74.248 150.08 73.544 150.656 72.68C151.232 71.784 151.648 70.872 151.904 69.944C152.16 69.016 152.288 68.04 152.288 67.016C152.288 64.264 151.6 62.12 150.224 60.584C148.848 59.048 146.56 58.28 143.36 58.28C142.176 58.28 140.992 58.392 139.808 58.616C139.616 60.44 139.52 62.44 139.52 64.616ZM168.931 87.224V58.904L165.043 58.376C164.851 57.8 164.851 57.224 165.043 56.648L171.619 56.792H191.011L191.059 67.928C190.355 68.056 189.763 68.056 189.283 67.928L187.027 59.24H174.067V73.64L181.747 73.496L182.851 68.792C183.331 68.664 183.923 68.664 184.627 68.792C184.499 70.584 184.435 72.648 184.435 74.984C184.435 77.128 184.483 79.208 184.579 81.224C184.003 81.416 183.427 81.416 182.851 81.224L181.795 76.232L174.067 76.088V92.552H188.467L190.723 83.864C191.203 83.736 191.795 83.736 192.499 83.864L192.451 95H171.619L164.755 95.144C164.563 94.568 164.563 93.992 164.755 93.416L168.739 92.888C168.867 91.256 168.931 89.368 168.931 87.224ZM201.509 87.224V58.904L197.621 58.376C197.429 57.8 197.429 57.224 197.621 56.648L204.197 56.792H223.589L223.637 67.928C222.933 68.056 222.341 68.056 221.861 67.928L219.605 59.24H206.645V73.64L214.325 73.496L215.429 68.792C215.909 68.664 216.501 68.664 217.205 68.792C217.077 70.584 217.013 72.648 217.013 74.984C217.013 77.128 217.061 79.208 217.157 81.224C216.581 81.416 216.005 81.416 215.429 81.224L214.373 76.232L206.645 76.088V92.552H221.045L223.301 83.864C223.781 83.736 224.373 83.736 225.077 83.864L225.029 95H204.197L197.333 95.144C197.141 94.568 197.141 93.992 197.333 93.416L201.317 92.888C201.445 91.256 201.509 89.368 201.509 87.224ZM234.087 87.176V58.904L230.199 58.376C230.007 57.8 230.007 57.224 230.199 56.648L236.775 56.792H256.167L256.215 67.928C255.511 68.056 254.919 68.056 254.439 67.928L252.183 59.24H239.223V73.4L246.903 73.256L248.007 68.552C248.487 68.424 249.079 68.424 249.783 68.552C249.655 70.344 249.591 72.408 249.591 74.744C249.591 76.888 249.639 78.968 249.735 80.984C249.159 81.176 248.583 81.176 248.007 80.984L246.951 75.992L239.223 75.848V92.888L243.591 93.368C243.719 93.848 243.719 94.44 243.591 95.144C241.575 95.048 239.303 95 236.775 95C234.887 95 232.599 95.032 229.911 95.096C229.719 94.52 229.719 93.944 229.911 93.368L233.895 92.792C234.023 91.576 234.087 89.704 234.087 87.176ZM263.947 87.224V58.904L260.059 58.376C259.867 57.8 259.867 57.224 260.059 56.648L266.635 56.792H286.027L286.075 67.928C285.371 68.056 284.779 68.056 284.299 67.928L282.043 59.24H269.083V73.64L276.763 73.496L277.867 68.792C278.347 68.664 278.939 68.664 279.643 68.792C279.515 70.584 279.451 72.648 279.451 74.984C279.451 77.128 279.499 79.208 279.595 81.224C279.019 81.416 278.443 81.416 277.867 81.224L276.811 76.232L269.083 76.088V92.552H283.483L285.739 83.864C286.219 83.736 286.811 83.736 287.515 83.864L287.467 95H266.635L259.771 95.144C259.579 94.568 259.579 93.992 259.771 93.416L263.755 92.888C263.883 91.256 263.947 89.368 263.947 87.224ZM292.637 56.648C293.949 56.648 296.029 56.584 298.877 56.456C301.757 56.328 304.365 56.264 306.701 56.264C311.565 56.264 315.037 57.24 317.117 59.192C319.197 61.112 320.237 63.8 320.237 67.256C320.237 69.336 319.517 71.208 318.077 72.872C316.637 74.536 314.749 75.784 312.413 76.616C313.789 78.952 315.069 81.144 316.253 83.192C317.469 85.24 318.349 86.76 318.893 87.752C319.437 88.744 319.933 89.64 320.381 90.44C320.829 91.208 321.149 91.736 321.341 92.024C321.565 92.312 321.773 92.552 321.965 92.744L325.421 93.224C325.549 93.704 325.549 94.296 325.421 95H317.261L310.013 81.848C309.053 80.024 308.141 78.616 307.277 77.624H306.605C304.973 77.624 303.325 77.528 301.661 77.336V92.888L306.029 93.368C306.157 93.848 306.157 94.44 306.029 95.144C304.013 95.048 301.741 95 299.213 95C297.325 95 295.037 95.032 292.349 95.096C292.157 94.52 292.157 93.944 292.349 93.368L296.333 92.792C296.461 91.576 296.525 89.704 296.525 87.176V58.904L292.637 58.424C292.509 57.944 292.509 57.352 292.637 56.648ZM301.661 64.616V75.368C302.653 75.496 304.093 75.56 305.981 75.56C307.613 75.56 309.005 75.304 310.157 74.792C311.341 74.248 312.221 73.544 312.797 72.68C313.373 71.784 313.789 70.872 314.045 69.944C314.301 69.016 314.429 68.04 314.429 67.016C314.429 64.264 313.741 62.12 312.365 60.584C310.989 59.048 308.701 58.28 305.501 58.28C304.317 58.28 303.133 58.392 301.949 58.616C301.757 60.44 301.661 62.44 301.661 64.616Z" fill="#515151"/>
<path d="M137.072 51L130.208 51.144C130.016 50.568 130.016 49.992 130.208 49.416L134.192 48.888C134.32 47.256 134.384 45.368 134.384 43.224V14.904L130.496 14.424C130.368 13.944 130.368 13.352 130.496 12.648C132.256 12.776 134.448 12.84 137.072 12.84C139.408 12.84 141.616 12.792 143.696 12.696C143.888 13.272 143.888 13.848 143.696 14.424L139.712 15C139.584 16.216 139.52 18.088 139.52 20.616V48.552H155.36L157.616 39.864C158.096 39.736 158.688 39.736 159.392 39.864L159.344 51H137.072ZM168.402 47.688C170.258 48.968 172.866 49.608 176.226 49.608C178.498 49.608 180.194 48.952 181.314 47.64C182.466 46.328 183.042 44.76 183.042 42.936C183.042 41.976 182.962 41.176 182.802 40.536C182.642 39.864 182.29 39.112 181.746 38.28C181.234 37.448 180.402 36.616 179.25 35.784C178.098 34.952 176.594 34.072 174.738 33.144C172.562 32.056 170.802 31.032 169.458 30.072C168.114 29.112 167.106 28.12 166.434 27.096C165.762 26.072 165.314 25.096 165.09 24.168C164.866 23.24 164.754 22.088 164.754 20.712C164.754 17.896 165.874 15.72 168.114 14.184C170.386 12.616 173.058 11.832 176.13 11.832C179.938 11.832 183.618 12.792 187.17 14.712V23.928C186.082 24.12 185.17 24.12 184.434 23.928L182.898 15.624C180.85 14.504 178.562 13.944 176.034 13.944C174.338 13.944 172.898 14.456 171.714 15.48C170.562 16.472 169.986 17.88 169.986 19.704C169.986 20.728 170.05 21.528 170.178 22.104C170.306 22.68 170.626 23.368 171.138 24.168C171.65 24.936 172.498 25.72 173.682 26.52C174.866 27.288 176.45 28.152 178.434 29.112C185.282 32.44 188.706 36.408 188.706 41.016C188.706 44.28 187.458 46.92 184.962 48.936C182.466 50.952 179.202 51.96 175.17 51.96C171.17 51.96 167.49 51.016 164.13 49.128V39.912C165.218 39.72 166.13 39.72 166.866 39.912L168.402 47.688Z" fill="#515151"/>
<path d="M5.18945 119.199V114.707H6.89844C7.1263 114.707 7.42578 114.691 7.79688 114.658C8.16797 114.626 8.38932 114.596 8.46094 114.57L10.2188 119.199H9.7207C9.57096 119.199 9.45378 119.238 9.36914 119.316C9.28451 119.395 9.24219 119.486 9.24219 119.59C9.24219 119.701 9.28451 119.798 9.36914 119.883C9.46029 119.961 9.58398 120 9.74023 120H12.0352C12.25 120 12.4062 119.961 12.5039 119.883C12.6016 119.805 12.6504 119.707 12.6504 119.59C12.6504 119.479 12.6016 119.388 12.5039 119.316C12.4128 119.238 12.2533 119.199 12.0254 119.199H11.2051L9.21289 114.355C9.79232 114.141 10.2708 113.815 10.6484 113.379C11.0326 112.936 11.2246 112.367 11.2246 111.67C11.2246 110.824 11.0293 110.176 10.6387 109.727C10.2546 109.271 9.7207 108.965 9.03711 108.809C8.35352 108.646 7.48763 108.564 6.43945 108.564H3.31445C3.1582 108.564 3.03451 108.607 2.94336 108.691C2.85872 108.776 2.81641 108.877 2.81641 108.994C2.81641 109.105 2.85872 109.202 2.94336 109.287C3.03451 109.365 3.15495 109.404 3.30469 109.404H4.25195V119.199H3.03125C2.875 119.199 2.75456 119.238 2.66992 119.316C2.58529 119.395 2.54297 119.489 2.54297 119.6C2.54297 119.704 2.58529 119.798 2.66992 119.883C2.76107 119.961 2.88477 120 3.04102 120H6.9375C7.09375 120 7.21419 119.961 7.29883 119.883C7.38346 119.798 7.42578 119.704 7.42578 119.6C7.42578 119.489 7.38346 119.395 7.29883 119.316C7.21419 119.238 7.09701 119.199 6.94727 119.199H5.18945ZM6.42969 109.404C7.41276 109.404 8.17448 109.463 8.71484 109.58C9.25521 109.697 9.65234 109.922 9.90625 110.254C10.1602 110.586 10.2871 111.081 10.2871 111.738C10.2871 112.357 10.1243 112.829 9.79883 113.154C9.47331 113.473 9.02409 113.688 8.45117 113.799C7.88477 113.903 7.14583 113.955 6.23438 113.955H5.18945V109.404H6.42969ZM15.1797 116.025C15.1797 116.878 15.3652 117.617 15.7363 118.242C16.1074 118.861 16.625 119.336 17.2891 119.668C17.9596 120 18.7311 120.166 19.6035 120.166C20.1569 120.166 20.7493 120.059 21.3809 119.844C22.0189 119.629 22.5072 119.339 22.8457 118.975C22.9629 118.844 23.0215 118.708 23.0215 118.564C23.0215 118.447 22.9857 118.346 22.9141 118.262C22.8424 118.177 22.748 118.135 22.6309 118.135C22.5007 118.135 22.3672 118.19 22.2305 118.301C21.8594 118.652 21.4362 118.919 20.9609 119.102C20.4922 119.277 20.0137 119.365 19.5254 119.365C18.5228 119.365 17.7122 119.098 17.0938 118.564C16.4753 118.031 16.1497 117.249 16.1172 116.221L22.2598 116.172C22.4876 116.172 22.6699 116.094 22.8066 115.938C22.9434 115.775 23.0117 115.57 23.0117 115.322C23.0117 114.626 22.8587 114.033 22.5527 113.545C22.2533 113.057 21.8366 112.689 21.3027 112.441C20.7754 112.188 20.1732 112.061 19.4961 112.061C18.7018 112.061 17.9759 112.22 17.3184 112.539C16.6673 112.858 16.1465 113.317 15.7559 113.916C15.3717 114.515 15.1797 115.218 15.1797 116.025ZM19.5156 112.861C20.5312 112.861 21.2181 113.118 21.5762 113.633C21.9342 114.147 22.1361 114.756 22.1816 115.459L16.1465 115.498C16.2637 114.665 16.6152 114.017 17.2012 113.555C17.7936 113.092 18.5651 112.861 19.5156 112.861ZM35.3359 108.896C35.3359 108.747 35.2806 108.626 35.1699 108.535C35.0658 108.444 34.9355 108.398 34.7793 108.398C33.4121 108.398 32.3607 108.682 31.625 109.248C30.8958 109.808 30.5312 110.664 30.5312 111.816V112.52H28.6172C28.487 112.52 28.3861 112.559 28.3145 112.637C28.2428 112.715 28.207 112.806 28.207 112.91C28.207 113.021 28.2461 113.118 28.3242 113.203C28.4023 113.281 28.513 113.32 28.6562 113.32H30.5312V119.199H28.373C28.2428 119.199 28.1419 119.238 28.0703 119.316C27.9987 119.395 27.9629 119.486 27.9629 119.59C27.9629 119.701 28.002 119.798 28.0801 119.883C28.1582 119.961 28.2689 120 28.4121 120H35.0039C35.1276 120 35.222 119.961 35.2871 119.883C35.3587 119.805 35.3945 119.71 35.3945 119.6C35.3945 119.495 35.3587 119.404 35.2871 119.326C35.222 119.242 35.1309 119.199 35.0137 119.199H31.4785L31.4688 113.32H34.4863C34.61 113.32 34.7077 113.281 34.7793 113.203C34.8509 113.125 34.8867 113.031 34.8867 112.92C34.8867 112.816 34.8509 112.725 34.7793 112.646C34.7142 112.562 34.6198 112.52 34.4961 112.52H31.4785V111.875C31.4785 111.25 31.5632 110.752 31.7324 110.381C31.9082 110.01 32.2044 109.73 32.6211 109.541C33.0443 109.346 33.6367 109.222 34.3984 109.17V110.078C34.3984 110.241 34.444 110.368 34.5352 110.459C34.6263 110.544 34.7337 110.586 34.8574 110.586C34.9876 110.586 35.0983 110.54 35.1895 110.449C35.2871 110.352 35.3359 110.215 35.3359 110.039V108.896ZM46.3125 114.033C46.3125 114.196 46.3581 114.323 46.4492 114.414C46.5404 114.499 46.6478 114.541 46.7715 114.541C46.9017 114.541 47.0124 114.495 47.1035 114.404C47.2012 114.307 47.25 114.17 47.25 113.994V112.646C47.25 112.451 47.1849 112.305 47.0547 112.207C46.9245 112.109 46.7031 112.061 46.3906 112.061C44.5807 112.061 43.3047 112.63 42.5625 113.77L42.5234 112.754C42.5169 112.572 42.4876 112.435 42.4355 112.344C42.39 112.253 42.2956 112.207 42.1523 112.207C42.0872 112.207 42.0124 112.217 41.9277 112.236L40.2578 112.568C40.1667 112.588 40.0951 112.633 40.043 112.705C39.9909 112.77 39.9648 112.848 39.9648 112.939C39.9648 113.044 39.9974 113.135 40.0625 113.213C40.1341 113.291 40.2318 113.33 40.3555 113.33C40.4076 113.33 40.4466 113.327 40.4727 113.32L41.6641 113.076V119.199H39.877C39.7467 119.199 39.6458 119.238 39.5742 119.316C39.5026 119.395 39.4668 119.486 39.4668 119.59C39.4668 119.701 39.5059 119.798 39.584 119.883C39.6621 119.961 39.7728 120 39.916 120H45.873C45.9967 120 46.0944 119.961 46.166 119.883C46.2376 119.798 46.2734 119.704 46.2734 119.6C46.2734 119.489 46.2376 119.395 46.166 119.316C46.1009 119.238 46.0065 119.199 45.8828 119.199H42.6016V114.863C42.862 114.212 43.3275 113.717 43.998 113.379C44.6686 113.034 45.4401 112.861 46.3125 112.861V114.033ZM55.3848 109.375C55.3848 109.596 55.4629 109.785 55.6191 109.941C55.7754 110.098 55.9674 110.176 56.1953 110.176C56.4232 110.176 56.612 110.098 56.7617 109.941C56.918 109.785 56.9961 109.596 56.9961 109.375C56.9961 109.147 56.918 108.955 56.7617 108.799C56.6055 108.643 56.4167 108.564 56.1953 108.564C55.974 108.564 55.7819 108.643 55.6191 108.799C55.4629 108.955 55.3848 109.147 55.3848 109.375ZM60.0918 120C60.2155 120 60.3132 119.961 60.3848 119.883C60.4564 119.805 60.4922 119.71 60.4922 119.6C60.4922 119.495 60.4564 119.404 60.3848 119.326C60.3197 119.242 60.2253 119.199 60.1016 119.199H56.8496V112.393C56.8496 112.295 56.8171 112.22 56.752 112.168C56.6868 112.109 56.6022 112.08 56.498 112.08C56.446 112.08 56.4102 112.083 56.3906 112.09L52.5039 112.627C52.3997 112.64 52.3216 112.686 52.2695 112.764C52.2174 112.835 52.1914 112.92 52.1914 113.018C52.1914 113.128 52.2272 113.226 52.2988 113.311C52.3704 113.389 52.4681 113.428 52.5918 113.428L52.6602 113.418L55.9121 112.979V119.199H52.2793C52.1491 119.199 52.0482 119.238 51.9766 119.316C51.9049 119.388 51.8691 119.476 51.8691 119.58C51.8691 119.691 51.9082 119.788 51.9863 119.873C52.0645 119.958 52.1751 120 52.3184 120H60.0918ZM65.4434 118.145C65.4434 117.975 65.5247 117.819 65.6875 117.676C65.8568 117.526 66.0814 117.409 66.3613 117.324C66.6478 117.24 66.957 117.197 67.2891 117.197C68.3893 117.197 69.2096 116.999 69.75 116.602C70.2969 116.204 70.5703 115.579 70.5703 114.727C70.5703 114.141 70.3848 113.617 70.0137 113.154L71.6641 112.432C72.1198 112.432 72.4486 112.386 72.6504 112.295C72.8587 112.204 72.9629 112.083 72.9629 111.934C72.9629 111.602 72.7741 111.436 72.3965 111.436C72.0124 111.436 71.6185 111.572 71.2148 111.846L69.7305 112.832C69.4245 112.578 69.0697 112.386 68.666 112.256C68.2624 112.126 67.8392 112.061 67.3965 112.061C66.8171 112.061 66.2865 112.158 65.8047 112.354C65.3294 112.542 64.9486 112.835 64.6621 113.232C64.3822 113.623 64.2422 114.105 64.2422 114.678C64.2422 115.212 64.3822 115.638 64.6621 115.957C64.9421 116.27 65.362 116.54 65.9219 116.768C65.7331 116.794 65.528 116.875 65.3066 117.012C65.0853 117.142 64.8965 117.314 64.7402 117.529C64.584 117.738 64.5059 117.959 64.5059 118.193C64.5059 118.486 64.5807 118.73 64.7305 118.926C64.8867 119.115 65.1178 119.284 65.4238 119.434C65.0788 119.603 64.7988 119.86 64.584 120.205C64.3691 120.557 64.2617 120.967 64.2617 121.436C64.2617 122.152 64.5417 122.66 65.1016 122.959C65.6615 123.265 66.3809 123.418 67.2598 123.418C67.9564 123.418 68.6074 123.333 69.2129 123.164C69.8249 122.995 70.3164 122.738 70.6875 122.393C71.0651 122.048 71.2539 121.621 71.2539 121.113C71.2539 120.514 71.1237 120.059 70.8633 119.746C70.6029 119.434 70.2285 119.222 69.7402 119.111C69.252 118.994 68.6074 118.936 67.8066 118.936H66.8984C66.4948 118.936 66.1855 118.903 65.9707 118.838C65.7624 118.766 65.6224 118.675 65.5508 118.564C65.4792 118.447 65.4434 118.307 65.4434 118.145ZM67.3184 116.475C66.6934 116.475 66.179 116.325 65.7754 116.025C65.3783 115.719 65.1797 115.28 65.1797 114.707C65.1797 114.089 65.3848 113.626 65.7949 113.32C66.2051 113.014 66.7324 112.861 67.377 112.861C68.0345 112.861 68.5749 113.018 68.998 113.33C69.4212 113.636 69.6328 114.121 69.6328 114.785C69.6328 115.404 69.418 115.84 68.9883 116.094C68.5586 116.348 68.002 116.475 67.3184 116.475ZM67.8359 119.639C68.4805 119.639 68.9785 119.684 69.3301 119.775C69.6816 119.86 69.9323 120.01 70.082 120.225C70.2383 120.439 70.3164 120.749 70.3164 121.152C70.3164 121.66 70.0072 122.031 69.3887 122.266C68.7767 122.5 68.0605 122.617 67.2402 122.617C66.5371 122.617 66.0195 122.513 65.6875 122.305C65.362 122.103 65.1992 121.732 65.1992 121.191C65.1992 121.009 65.2415 120.804 65.3262 120.576C65.4173 120.355 65.528 120.156 65.6582 119.98C65.7884 119.798 65.9154 119.684 66.0391 119.639H67.8359ZM75.7266 116.025C75.7266 116.878 75.9121 117.617 76.2832 118.242C76.6543 118.861 77.1719 119.336 77.8359 119.668C78.5065 120 79.278 120.166 80.1504 120.166C80.7038 120.166 81.2962 120.059 81.9277 119.844C82.5658 119.629 83.054 119.339 83.3926 118.975C83.5098 118.844 83.5684 118.708 83.5684 118.564C83.5684 118.447 83.5326 118.346 83.4609 118.262C83.3893 118.177 83.2949 118.135 83.1777 118.135C83.0475 118.135 82.9141 118.19 82.7773 118.301C82.4062 118.652 81.9831 118.919 81.5078 119.102C81.0391 119.277 80.5605 119.365 80.0723 119.365C79.0697 119.365 78.2591 119.098 77.6406 118.564C77.0221 118.031 76.6966 117.249 76.6641 116.221L82.8066 116.172C83.0345 116.172 83.2168 116.094 83.3535 115.938C83.4902 115.775 83.5586 115.57 83.5586 115.322C83.5586 114.626 83.4056 114.033 83.0996 113.545C82.8001 113.057 82.3835 112.689 81.8496 112.441C81.3223 112.188 80.7201 112.061 80.043 112.061C79.2487 112.061 78.5228 112.22 77.8652 112.539C77.2142 112.858 76.6934 113.317 76.3027 113.916C75.9186 114.515 75.7266 115.218 75.7266 116.025ZM80.0625 112.861C81.0781 112.861 81.765 113.118 82.123 113.633C82.4811 114.147 82.6829 114.756 82.7285 115.459L76.6934 115.498C76.8105 114.665 77.1621 114.017 77.748 113.555C78.3405 113.092 79.112 112.861 80.0625 112.861ZM94.75 114.033C94.75 114.196 94.7956 114.323 94.8867 114.414C94.9779 114.499 95.0853 114.541 95.209 114.541C95.3392 114.541 95.4499 114.495 95.541 114.404C95.6387 114.307 95.6875 114.17 95.6875 113.994V112.646C95.6875 112.451 95.6224 112.305 95.4922 112.207C95.362 112.109 95.1406 112.061 94.8281 112.061C93.0182 112.061 91.7422 112.63 91 113.77L90.9609 112.754C90.9544 112.572 90.9251 112.435 90.873 112.344C90.8275 112.253 90.7331 112.207 90.5898 112.207C90.5247 112.207 90.4499 112.217 90.3652 112.236L88.6953 112.568C88.6042 112.588 88.5326 112.633 88.4805 112.705C88.4284 112.77 88.4023 112.848 88.4023 112.939C88.4023 113.044 88.4349 113.135 88.5 113.213C88.5716 113.291 88.6693 113.33 88.793 113.33C88.8451 113.33 88.8841 113.327 88.9102 113.32L90.1016 113.076V119.199H88.3145C88.1842 119.199 88.0833 119.238 88.0117 119.316C87.9401 119.395 87.9043 119.486 87.9043 119.59C87.9043 119.701 87.9434 119.798 88.0215 119.883C88.0996 119.961 88.2103 120 88.3535 120H94.3105C94.4342 120 94.5319 119.961 94.6035 119.883C94.6751 119.798 94.7109 119.704 94.7109 119.6C94.7109 119.489 94.6751 119.395 94.6035 119.316C94.5384 119.238 94.444 119.199 94.3203 119.199H91.0391V114.863C91.2995 114.212 91.765 113.717 92.4355 113.379C93.1061 113.034 93.8776 112.861 94.75 112.861V114.033ZM105.824 115.41L105.111 115.459C104.05 115.531 103.204 115.622 102.572 115.732C101.947 115.843 101.42 116.071 100.99 116.416C100.561 116.761 100.346 117.272 100.346 117.949C100.346 118.62 100.551 119.157 100.961 119.561C101.371 119.958 101.941 120.156 102.67 120.156C103.347 120.156 103.972 120.036 104.545 119.795C105.124 119.554 105.574 119.255 105.893 118.896C105.971 119.359 106.124 119.671 106.352 119.834C106.579 119.99 106.859 120.068 107.191 120.068C107.484 120.068 107.764 120.007 108.031 119.883C108.305 119.753 108.546 119.577 108.754 119.355C108.819 119.29 108.852 119.209 108.852 119.111C108.852 119.007 108.816 118.913 108.744 118.828C108.673 118.743 108.588 118.701 108.49 118.701C108.406 118.701 108.327 118.74 108.256 118.818C108.145 118.936 107.995 119.046 107.807 119.15C107.618 119.248 107.439 119.297 107.27 119.297C107.113 119.297 106.99 119.258 106.898 119.18C106.807 119.095 106.762 118.939 106.762 118.711V115.664C106.762 114.87 106.677 114.212 106.508 113.691C106.339 113.164 106.039 112.76 105.609 112.48C105.186 112.201 104.6 112.061 103.852 112.061C103.188 112.061 102.598 112.148 102.084 112.324C101.57 112.5 101.169 112.744 100.883 113.057C100.596 113.369 100.453 113.721 100.453 114.111C100.453 114.32 100.502 114.489 100.6 114.619C100.704 114.749 100.85 114.814 101.039 114.814C101.26 114.814 101.417 114.688 101.508 114.434C101.599 114.18 101.658 113.802 101.684 113.301C102.029 113.145 102.37 113.034 102.709 112.969C103.054 112.897 103.432 112.861 103.842 112.861C104.571 112.861 105.082 113.063 105.375 113.467C105.674 113.87 105.824 114.453 105.824 115.215V115.41ZM105.824 118.154C105.473 118.525 105.02 118.822 104.467 119.043C103.92 119.258 103.357 119.365 102.777 119.365C102.328 119.365 101.967 119.255 101.693 119.033C101.426 118.805 101.293 118.444 101.293 117.949C101.293 117.493 101.449 117.148 101.762 116.914C102.074 116.68 102.494 116.517 103.021 116.426C103.555 116.328 104.356 116.227 105.424 116.123L105.824 116.084V118.154ZM119.193 118.164C119.291 118.164 119.372 118.197 119.438 118.262C119.503 118.327 119.535 118.428 119.535 118.564C119.535 118.708 119.477 118.844 119.359 118.975C119.021 119.346 118.539 119.639 117.914 119.854C117.296 120.062 116.71 120.166 116.156 120.166C116.007 120.166 115.896 120.163 115.824 120.156L115.443 123.174C115.411 123.447 115.336 123.646 115.219 123.77C115.108 123.893 114.981 123.955 114.838 123.955C114.688 123.955 114.571 123.906 114.486 123.809C114.402 123.717 114.359 123.59 114.359 123.428C114.359 123.317 114.385 123.184 114.438 123.027L115.453 120.127C114.711 120.042 114.063 119.824 113.51 119.473C112.956 119.121 112.527 118.652 112.221 118.066C111.921 117.48 111.771 116.8 111.771 116.025C111.771 115.218 111.967 114.515 112.357 113.916C112.755 113.317 113.288 112.858 113.959 112.539C114.63 112.22 115.372 112.061 116.186 112.061C117.214 112.061 118.031 112.256 118.637 112.646C119.242 113.037 119.545 113.652 119.545 114.492C119.545 114.727 119.493 114.915 119.389 115.059C119.291 115.202 119.148 115.273 118.959 115.273C118.77 115.273 118.64 115.156 118.568 114.922C118.497 114.681 118.428 114.274 118.363 113.701L118.314 113.301C117.989 113.138 117.663 113.024 117.338 112.959C117.019 112.894 116.684 112.861 116.332 112.861C115.577 112.861 114.926 112.988 114.379 113.242C113.839 113.496 113.425 113.861 113.139 114.336C112.852 114.805 112.709 115.368 112.709 116.025C112.709 117.126 113.012 117.959 113.617 118.525C114.229 119.085 115.049 119.365 116.078 119.365C116.677 119.365 117.178 119.284 117.582 119.121C117.986 118.958 118.389 118.691 118.793 118.32C118.904 118.216 119.037 118.164 119.193 118.164ZM126.459 110.02C126.459 110.091 126.501 110.156 126.586 110.215C126.677 110.267 126.768 110.293 126.859 110.293C126.964 110.293 127.035 110.254 127.074 110.176C127.165 109.954 127.26 109.788 127.357 109.678C127.455 109.567 127.566 109.512 127.689 109.512C127.729 109.512 127.758 109.515 127.777 109.521C127.947 109.561 128.24 109.691 128.656 109.912C128.917 110.042 129.138 110.15 129.32 110.234C129.503 110.319 129.685 110.384 129.867 110.43C129.984 110.456 130.072 110.469 130.131 110.469C130.639 110.469 131.049 110.062 131.361 109.248C131.381 109.157 131.335 109.072 131.225 108.994C131.114 108.916 131.003 108.877 130.893 108.877C130.808 108.877 130.753 108.903 130.727 108.955C130.701 109.007 130.648 109.105 130.57 109.248C130.499 109.391 130.424 109.502 130.346 109.58C130.268 109.658 130.183 109.697 130.092 109.697C130.001 109.697 129.874 109.661 129.711 109.59C129.555 109.518 129.346 109.414 129.086 109.277C129.034 109.251 128.913 109.193 128.725 109.102C128.536 109.004 128.367 108.926 128.217 108.867C128.067 108.809 127.937 108.77 127.826 108.75C127.748 108.737 127.696 108.73 127.67 108.73C127.481 108.73 127.292 108.799 127.104 108.936C126.915 109.066 126.758 109.232 126.635 109.434C126.518 109.635 126.459 109.831 126.459 110.02ZM130.043 115.41L129.33 115.459C128.269 115.531 127.423 115.622 126.791 115.732C126.166 115.843 125.639 116.071 125.209 116.416C124.779 116.761 124.564 117.272 124.564 117.949C124.564 118.62 124.77 119.157 125.18 119.561C125.59 119.958 126.16 120.156 126.889 120.156C127.566 120.156 128.191 120.036 128.764 119.795C129.343 119.554 129.792 119.255 130.111 118.896C130.189 119.359 130.342 119.671 130.57 119.834C130.798 119.99 131.078 120.068 131.41 120.068C131.703 120.068 131.983 120.007 132.25 119.883C132.523 119.753 132.764 119.577 132.973 119.355C133.038 119.29 133.07 119.209 133.07 119.111C133.07 119.007 133.035 118.913 132.963 118.828C132.891 118.743 132.807 118.701 132.709 118.701C132.624 118.701 132.546 118.74 132.475 118.818C132.364 118.936 132.214 119.046 132.025 119.15C131.837 119.248 131.658 119.297 131.488 119.297C131.332 119.297 131.208 119.258 131.117 119.18C131.026 119.095 130.98 118.939 130.98 118.711V115.664C130.98 114.87 130.896 114.212 130.727 113.691C130.557 113.164 130.258 112.76 129.828 112.48C129.405 112.201 128.819 112.061 128.07 112.061C127.406 112.061 126.817 112.148 126.303 112.324C125.788 112.5 125.388 112.744 125.102 113.057C124.815 113.369 124.672 113.721 124.672 114.111C124.672 114.32 124.721 114.489 124.818 114.619C124.923 114.749 125.069 114.814 125.258 114.814C125.479 114.814 125.635 114.688 125.727 114.434C125.818 114.18 125.876 113.802 125.902 113.301C126.247 113.145 126.589 113.034 126.928 112.969C127.273 112.897 127.65 112.861 128.061 112.861C128.79 112.861 129.301 113.063 129.594 113.467C129.893 113.87 130.043 114.453 130.043 115.215V115.41ZM130.043 118.154C129.691 118.525 129.239 118.822 128.686 119.043C128.139 119.258 127.576 119.365 126.996 119.365C126.547 119.365 126.186 119.255 125.912 119.033C125.645 118.805 125.512 118.444 125.512 117.949C125.512 117.493 125.668 117.148 125.98 116.914C126.293 116.68 126.713 116.517 127.24 116.426C127.774 116.328 128.575 116.227 129.643 116.123L130.043 116.084V118.154ZM136.117 116.113C136.117 116.927 136.29 117.64 136.635 118.252C136.98 118.864 137.465 119.336 138.09 119.668C138.715 120 139.438 120.166 140.258 120.166C141.078 120.166 141.801 120 142.426 119.668C143.051 119.336 143.536 118.864 143.881 118.252C144.226 117.64 144.398 116.927 144.398 116.113C144.398 115.293 144.226 114.577 143.881 113.965C143.536 113.353 143.051 112.884 142.426 112.559C141.801 112.227 141.078 112.061 140.258 112.061C139.438 112.061 138.715 112.227 138.09 112.559C137.465 112.884 136.98 113.353 136.635 113.965C136.29 114.577 136.117 115.293 136.117 116.113ZM137.172 116.113C137.172 115.482 137.292 114.922 137.533 114.434C137.781 113.939 138.135 113.555 138.598 113.281C139.066 113.001 139.62 112.861 140.258 112.861C140.896 112.861 141.446 113.001 141.908 113.281C142.377 113.555 142.732 113.939 142.973 114.434C143.22 114.922 143.344 115.482 143.344 116.113C143.344 116.751 143.22 117.318 142.973 117.812C142.732 118.301 142.377 118.682 141.908 118.955C141.446 119.229 140.896 119.365 140.258 119.365C139.62 119.365 139.066 119.229 138.598 118.955C138.135 118.682 137.781 118.301 137.533 117.812C137.292 117.318 137.172 116.751 137.172 116.113ZM160.492 116.025C160.492 116.878 160.678 117.617 161.049 118.242C161.42 118.861 161.938 119.336 162.602 119.668C163.272 120 164.044 120.166 164.916 120.166C165.469 120.166 166.062 120.059 166.693 119.844C167.331 119.629 167.82 119.339 168.158 118.975C168.275 118.844 168.334 118.708 168.334 118.564C168.334 118.447 168.298 118.346 168.227 118.262C168.155 118.177 168.061 118.135 167.943 118.135C167.813 118.135 167.68 118.19 167.543 118.301C167.172 118.652 166.749 118.919 166.273 119.102C165.805 119.277 165.326 119.365 164.838 119.365C163.835 119.365 163.025 119.098 162.406 118.564C161.788 118.031 161.462 117.249 161.43 116.221L167.572 116.172C167.8 116.172 167.982 116.094 168.119 115.938C168.256 115.775 168.324 115.57 168.324 115.322C168.324 114.626 168.171 114.033 167.865 113.545C167.566 113.057 167.149 112.689 166.615 112.441C166.088 112.188 165.486 112.061 164.809 112.061C164.014 112.061 163.288 112.22 162.631 112.539C161.98 112.858 161.459 113.317 161.068 113.916C160.684 114.515 160.492 115.218 160.492 116.025ZM164.828 112.861C165.844 112.861 166.531 113.118 166.889 113.633C167.247 114.147 167.449 114.756 167.494 115.459L161.459 115.498C161.576 114.665 161.928 114.017 162.514 113.555C163.106 113.092 163.878 112.861 164.828 112.861ZM193.832 116.65C193.832 116.54 193.773 116.442 193.656 116.357C193.539 116.266 193.412 116.221 193.275 116.221C193.08 116.221 192.95 116.312 192.885 116.494C192.618 117.38 192.165 118.073 191.527 118.574C190.889 119.076 190.108 119.326 189.184 119.326C188.409 119.326 187.693 119.121 187.035 118.711C186.378 118.294 185.85 117.695 185.453 116.914C185.062 116.126 184.867 115.202 184.867 114.141C184.867 113.197 185.043 112.354 185.395 111.611C185.746 110.869 186.247 110.29 186.898 109.873C187.549 109.456 188.314 109.248 189.193 109.248C189.773 109.248 190.307 109.362 190.795 109.59C191.283 109.811 191.69 110.124 192.016 110.527C192.348 110.931 192.562 111.396 192.66 111.924C192.686 112.067 192.742 112.181 192.826 112.266C192.911 112.344 193.012 112.383 193.129 112.383C193.253 112.383 193.357 112.344 193.441 112.266C193.533 112.188 193.578 112.074 193.578 111.924V109.062C193.578 108.906 193.529 108.786 193.432 108.701C193.34 108.61 193.23 108.564 193.1 108.564C192.969 108.564 192.855 108.61 192.758 108.701C192.667 108.786 192.621 108.903 192.621 109.053V110.088C192.445 109.769 192.182 109.482 191.83 109.229C191.485 108.975 191.081 108.776 190.619 108.633C190.157 108.483 189.672 108.408 189.164 108.408C188.168 108.408 187.273 108.646 186.479 109.121C185.684 109.596 185.059 110.264 184.604 111.123C184.154 111.982 183.93 112.965 183.93 114.072C183.93 115.29 184.154 116.361 184.604 117.285C185.059 118.203 185.684 118.913 186.479 119.414C187.273 119.915 188.171 120.166 189.174 120.166C190.066 120.166 190.837 120 191.488 119.668C192.146 119.336 192.667 118.91 193.051 118.389C193.435 117.861 193.692 117.305 193.822 116.719C193.829 116.706 193.832 116.683 193.832 116.65ZM201.312 108.467L197.23 108.838C197.126 108.851 197.048 108.896 196.996 108.975C196.944 109.046 196.918 109.131 196.918 109.229C196.918 109.339 196.954 109.437 197.025 109.521C197.097 109.6 197.195 109.639 197.318 109.639L197.387 109.629L200.834 109.355V119.199H197.23C197.1 119.199 196.999 119.238 196.928 119.316C196.856 119.395 196.82 119.486 196.82 119.59C196.82 119.701 196.859 119.798 196.938 119.883C197.016 119.961 197.126 120 197.27 120H205.082C205.206 120 205.3 119.961 205.365 119.883C205.437 119.805 205.473 119.71 205.473 119.6C205.473 119.495 205.437 119.404 205.365 119.326C205.3 119.242 205.209 119.199 205.092 119.199H201.771V108.77C201.771 108.672 201.739 108.597 201.674 108.545C201.609 108.486 201.524 108.457 201.42 108.457L201.312 108.467ZM212.807 109.375C212.807 109.596 212.885 109.785 213.041 109.941C213.197 110.098 213.389 110.176 213.617 110.176C213.845 110.176 214.034 110.098 214.184 109.941C214.34 109.785 214.418 109.596 214.418 109.375C214.418 109.147 214.34 108.955 214.184 108.799C214.027 108.643 213.839 108.564 213.617 108.564C213.396 108.564 213.204 108.643 213.041 108.799C212.885 108.955 212.807 109.147 212.807 109.375ZM217.514 120C217.637 120 217.735 119.961 217.807 119.883C217.878 119.805 217.914 119.71 217.914 119.6C217.914 119.495 217.878 119.404 217.807 119.326C217.742 119.242 217.647 119.199 217.523 119.199H214.271V112.393C214.271 112.295 214.239 112.22 214.174 112.168C214.109 112.109 214.024 112.08 213.92 112.08C213.868 112.08 213.832 112.083 213.812 112.09L209.926 112.627C209.822 112.64 209.743 112.686 209.691 112.764C209.639 112.835 209.613 112.92 209.613 113.018C209.613 113.128 209.649 113.226 209.721 113.311C209.792 113.389 209.89 113.428 210.014 113.428L210.082 113.418L213.334 112.979V119.199H209.701C209.571 119.199 209.47 119.238 209.398 119.316C209.327 119.388 209.291 119.476 209.291 119.58C209.291 119.691 209.33 119.788 209.408 119.873C209.486 119.958 209.597 120 209.74 120H217.514ZM224.74 119.58C224.74 119.691 224.779 119.788 224.857 119.873C224.936 119.958 225.046 120 225.189 120H226.811C226.941 120 227.042 119.961 227.113 119.883C227.185 119.798 227.221 119.701 227.221 119.59C227.221 119.486 227.185 119.395 227.113 119.316C227.048 119.238 226.954 119.199 226.83 119.199H225.678V115.029C225.684 114.665 225.775 114.316 225.951 113.984C226.133 113.646 226.365 113.376 226.645 113.174C226.924 112.965 227.204 112.861 227.484 112.861C227.797 112.861 228.035 113.011 228.197 113.311C228.367 113.604 228.451 114.076 228.451 114.727V119.58C228.451 119.691 228.49 119.788 228.568 119.873C228.646 119.958 228.757 120 228.9 120H230.434C230.564 120 230.665 119.961 230.736 119.883C230.808 119.798 230.844 119.701 230.844 119.59C230.844 119.486 230.808 119.395 230.736 119.316C230.671 119.238 230.577 119.199 230.453 119.199H229.389V114.795C229.389 114.196 229.307 113.691 229.145 113.281C228.982 112.871 228.76 112.565 228.48 112.363C228.207 112.161 227.895 112.061 227.543 112.061C227.133 112.061 226.749 112.194 226.391 112.461C226.039 112.728 225.749 113.112 225.521 113.613C225.378 113.099 225.154 112.712 224.848 112.451C224.542 112.191 224.197 112.061 223.812 112.061C223.396 112.061 223.025 112.21 222.699 112.51C222.374 112.803 222.117 113.219 221.928 113.76L221.879 112.588C221.866 112.334 221.739 112.207 221.498 112.207C221.472 112.207 221.413 112.214 221.322 112.227L219.721 112.549C219.61 112.575 219.529 112.627 219.477 112.705C219.424 112.777 219.398 112.858 219.398 112.949C219.398 113.053 219.434 113.141 219.506 113.213C219.577 113.285 219.669 113.32 219.779 113.32C219.844 113.32 219.91 113.311 219.975 113.291L221.029 113.076V119.199H219.975C219.844 119.199 219.743 119.238 219.672 119.316C219.6 119.388 219.564 119.476 219.564 119.58C219.564 119.691 219.604 119.788 219.682 119.873C219.76 119.958 219.87 120 220.014 120H222.777C222.927 120 223.044 119.961 223.129 119.883C223.22 119.798 223.266 119.701 223.266 119.59C223.266 119.486 223.223 119.395 223.139 119.316C223.061 119.238 222.947 119.199 222.797 119.199H221.967V115.088C221.98 114.71 222.071 114.352 222.24 114.014C222.416 113.669 222.634 113.392 222.895 113.184C223.161 112.969 223.435 112.861 223.715 112.861C224.027 112.861 224.275 113.014 224.457 113.32C224.646 113.62 224.74 114.089 224.74 114.727V119.58ZM239.027 115.41L238.314 115.459C237.253 115.531 236.407 115.622 235.775 115.732C235.15 115.843 234.623 116.071 234.193 116.416C233.764 116.761 233.549 117.272 233.549 117.949C233.549 118.62 233.754 119.157 234.164 119.561C234.574 119.958 235.144 120.156 235.873 120.156C236.55 120.156 237.175 120.036 237.748 119.795C238.327 119.554 238.777 119.255 239.096 118.896C239.174 119.359 239.327 119.671 239.555 119.834C239.783 119.99 240.062 120.068 240.395 120.068C240.688 120.068 240.967 120.007 241.234 119.883C241.508 119.753 241.749 119.577 241.957 119.355C242.022 119.29 242.055 119.209 242.055 119.111C242.055 119.007 242.019 118.913 241.947 118.828C241.876 118.743 241.791 118.701 241.693 118.701C241.609 118.701 241.531 118.74 241.459 118.818C241.348 118.936 241.199 119.046 241.01 119.15C240.821 119.248 240.642 119.297 240.473 119.297C240.316 119.297 240.193 119.258 240.102 119.18C240.01 119.095 239.965 118.939 239.965 118.711V115.664C239.965 114.87 239.88 114.212 239.711 113.691C239.542 113.164 239.242 112.76 238.812 112.48C238.389 112.201 237.803 112.061 237.055 112.061C236.391 112.061 235.801 112.148 235.287 112.324C234.773 112.5 234.372 112.744 234.086 113.057C233.799 113.369 233.656 113.721 233.656 114.111C233.656 114.32 233.705 114.489 233.803 114.619C233.907 114.749 234.053 114.814 234.242 114.814C234.464 114.814 234.62 114.688 234.711 114.434C234.802 114.18 234.861 113.802 234.887 113.301C235.232 113.145 235.574 113.034 235.912 112.969C236.257 112.897 236.635 112.861 237.045 112.861C237.774 112.861 238.285 113.063 238.578 113.467C238.878 113.87 239.027 114.453 239.027 115.215V115.41ZM239.027 118.154C238.676 118.525 238.223 118.822 237.67 119.043C237.123 119.258 236.56 119.365 235.98 119.365C235.531 119.365 235.17 119.255 234.896 119.033C234.63 118.805 234.496 118.444 234.496 117.949C234.496 117.493 234.652 117.148 234.965 116.914C235.277 116.68 235.697 116.517 236.225 116.426C236.758 116.328 237.559 116.227 238.627 116.123L239.027 116.084V118.154ZM251.742 113.242C251.866 113.242 251.96 113.203 252.025 113.125C252.097 113.047 252.133 112.952 252.133 112.842C252.133 112.738 252.097 112.646 252.025 112.568C251.96 112.484 251.869 112.441 251.752 112.441H248.119V110.107C248.119 109.964 248.096 109.857 248.051 109.785C248.005 109.707 247.911 109.668 247.768 109.668C247.579 109.668 247.442 109.753 247.357 109.922C247.279 110.085 247.23 110.342 247.211 110.693C247.191 111.045 247.182 111.628 247.182 112.441H245.746C245.616 112.441 245.515 112.48 245.443 112.559C245.372 112.63 245.336 112.718 245.336 112.822C245.336 112.933 245.375 113.031 245.453 113.115C245.531 113.2 245.642 113.242 245.785 113.242H247.182V118.35C247.182 118.669 247.296 118.968 247.523 119.248C247.758 119.528 248.067 119.753 248.451 119.922C248.842 120.085 249.258 120.166 249.701 120.166C250.137 120.166 250.577 120.114 251.02 120.01C251.462 119.912 251.85 119.785 252.182 119.629C252.52 119.466 252.758 119.303 252.895 119.141C252.927 119.095 252.943 119.046 252.943 118.994C252.943 118.883 252.898 118.773 252.807 118.662C252.715 118.551 252.624 118.496 252.533 118.496C252.488 118.496 252.452 118.509 252.426 118.535C252.113 118.77 251.71 118.968 251.215 119.131C250.727 119.287 250.255 119.365 249.799 119.365C249.298 119.365 248.891 119.258 248.578 119.043C248.272 118.822 248.119 118.477 248.119 118.008V113.242H251.742ZM261.244 109.375C261.244 109.596 261.322 109.785 261.479 109.941C261.635 110.098 261.827 110.176 262.055 110.176C262.283 110.176 262.471 110.098 262.621 109.941C262.777 109.785 262.855 109.596 262.855 109.375C262.855 109.147 262.777 108.955 262.621 108.799C262.465 108.643 262.276 108.564 262.055 108.564C261.833 108.564 261.641 108.643 261.479 108.799C261.322 108.955 261.244 109.147 261.244 109.375ZM265.951 120C266.075 120 266.173 119.961 266.244 119.883C266.316 119.805 266.352 119.71 266.352 119.6C266.352 119.495 266.316 119.404 266.244 119.326C266.179 119.242 266.085 119.199 265.961 119.199H262.709V112.393C262.709 112.295 262.676 112.22 262.611 112.168C262.546 112.109 262.462 112.08 262.357 112.08C262.305 112.08 262.27 112.083 262.25 112.09L258.363 112.627C258.259 112.64 258.181 112.686 258.129 112.764C258.077 112.835 258.051 112.92 258.051 113.018C258.051 113.128 258.087 113.226 258.158 113.311C258.23 113.389 258.327 113.428 258.451 113.428L258.52 113.418L261.771 112.979V119.199H258.139C258.008 119.199 257.908 119.238 257.836 119.316C257.764 119.388 257.729 119.476 257.729 119.58C257.729 119.691 257.768 119.788 257.846 119.873C257.924 119.958 258.035 120 258.178 120H265.951ZM270.521 112.461C270.404 112.461 270.3 112.507 270.209 112.598C270.118 112.689 270.072 112.793 270.072 112.91V115.117C270.072 115.267 270.115 115.387 270.199 115.479C270.29 115.563 270.395 115.605 270.512 115.605C270.622 115.605 270.717 115.566 270.795 115.488C270.873 115.41 270.915 115.303 270.922 115.166L271 113.242H275.502L270.287 118.936C270.176 119.059 270.121 119.222 270.121 119.424C270.121 119.6 270.167 119.74 270.258 119.844C270.349 119.948 270.486 120 270.668 120H276.654C276.778 120 276.892 119.954 276.996 119.863C277.1 119.772 277.152 119.668 277.152 119.551V116.924C277.152 116.794 277.113 116.693 277.035 116.621C276.957 116.549 276.863 116.514 276.752 116.514C276.641 116.514 276.544 116.549 276.459 116.621C276.374 116.686 276.329 116.774 276.322 116.885L276.215 119.199H271.186L276.576 113.34C276.628 113.288 276.671 113.223 276.703 113.145C276.736 113.06 276.752 112.979 276.752 112.9C276.752 112.777 276.703 112.673 276.605 112.588C276.514 112.503 276.365 112.461 276.156 112.461H270.521ZM287.465 115.41L286.752 115.459C285.691 115.531 284.844 115.622 284.213 115.732C283.588 115.843 283.061 116.071 282.631 116.416C282.201 116.761 281.986 117.272 281.986 117.949C281.986 118.62 282.191 119.157 282.602 119.561C283.012 119.958 283.581 120.156 284.311 120.156C284.988 120.156 285.613 120.036 286.186 119.795C286.765 119.554 287.214 119.255 287.533 118.896C287.611 119.359 287.764 119.671 287.992 119.834C288.22 119.99 288.5 120.068 288.832 120.068C289.125 120.068 289.405 120.007 289.672 119.883C289.945 119.753 290.186 119.577 290.395 119.355C290.46 119.29 290.492 119.209 290.492 119.111C290.492 119.007 290.456 118.913 290.385 118.828C290.313 118.743 290.229 118.701 290.131 118.701C290.046 118.701 289.968 118.74 289.896 118.818C289.786 118.936 289.636 119.046 289.447 119.15C289.258 119.248 289.079 119.297 288.91 119.297C288.754 119.297 288.63 119.258 288.539 119.18C288.448 119.095 288.402 118.939 288.402 118.711V115.664C288.402 114.87 288.318 114.212 288.148 113.691C287.979 113.164 287.68 112.76 287.25 112.48C286.827 112.201 286.241 112.061 285.492 112.061C284.828 112.061 284.239 112.148 283.725 112.324C283.21 112.5 282.81 112.744 282.523 113.057C282.237 113.369 282.094 113.721 282.094 114.111C282.094 114.32 282.143 114.489 282.24 114.619C282.344 114.749 282.491 114.814 282.68 114.814C282.901 114.814 283.057 114.688 283.148 114.434C283.24 114.18 283.298 113.802 283.324 113.301C283.669 113.145 284.011 113.034 284.35 112.969C284.695 112.897 285.072 112.861 285.482 112.861C286.212 112.861 286.723 113.063 287.016 113.467C287.315 113.87 287.465 114.453 287.465 115.215V115.41ZM287.465 118.154C287.113 118.525 286.661 118.822 286.107 119.043C285.561 119.258 284.997 119.365 284.418 119.365C283.969 119.365 283.607 119.255 283.334 119.033C283.067 118.805 282.934 118.444 282.934 117.949C282.934 117.493 283.09 117.148 283.402 116.914C283.715 116.68 284.135 116.517 284.662 116.426C285.196 116.328 285.997 116.227 287.064 116.123L287.465 116.084V118.154ZM300.834 118.164C300.932 118.164 301.013 118.197 301.078 118.262C301.143 118.327 301.176 118.428 301.176 118.564C301.176 118.708 301.117 118.844 301 118.975C300.661 119.346 300.18 119.639 299.555 119.854C298.936 120.062 298.35 120.166 297.797 120.166C297.647 120.166 297.536 120.163 297.465 120.156L297.084 123.174C297.051 123.447 296.977 123.646 296.859 123.77C296.749 123.893 296.622 123.955 296.479 123.955C296.329 123.955 296.212 123.906 296.127 123.809C296.042 123.717 296 123.59 296 123.428C296 123.317 296.026 123.184 296.078 123.027L297.094 120.127C296.352 120.042 295.704 119.824 295.15 119.473C294.597 119.121 294.167 118.652 293.861 118.066C293.562 117.48 293.412 116.8 293.412 116.025C293.412 115.218 293.607 114.515 293.998 113.916C294.395 113.317 294.929 112.858 295.6 112.539C296.27 112.22 297.012 112.061 297.826 112.061C298.855 112.061 299.672 112.256 300.277 112.646C300.883 113.037 301.186 113.652 301.186 114.492C301.186 114.727 301.133 114.915 301.029 115.059C300.932 115.202 300.788 115.273 300.6 115.273C300.411 115.273 300.281 115.156 300.209 114.922C300.137 114.681 300.069 114.274 300.004 113.701L299.955 113.301C299.63 113.138 299.304 113.024 298.979 112.959C298.66 112.894 298.324 112.861 297.973 112.861C297.217 112.861 296.566 112.988 296.02 113.242C295.479 113.496 295.066 113.861 294.779 114.336C294.493 114.805 294.35 115.368 294.35 116.025C294.35 117.126 294.652 117.959 295.258 118.525C295.87 119.085 296.69 119.365 297.719 119.365C298.318 119.365 298.819 119.284 299.223 119.121C299.626 118.958 300.03 118.691 300.434 118.32C300.544 118.216 300.678 118.164 300.834 118.164ZM308.1 110.02C308.1 110.091 308.142 110.156 308.227 110.215C308.318 110.267 308.409 110.293 308.5 110.293C308.604 110.293 308.676 110.254 308.715 110.176C308.806 109.954 308.9 109.788 308.998 109.678C309.096 109.567 309.206 109.512 309.33 109.512C309.369 109.512 309.398 109.515 309.418 109.521C309.587 109.561 309.88 109.691 310.297 109.912C310.557 110.042 310.779 110.15 310.961 110.234C311.143 110.319 311.326 110.384 311.508 110.43C311.625 110.456 311.713 110.469 311.771 110.469C312.279 110.469 312.689 110.062 313.002 109.248C313.021 109.157 312.976 109.072 312.865 108.994C312.755 108.916 312.644 108.877 312.533 108.877C312.449 108.877 312.393 108.903 312.367 108.955C312.341 109.007 312.289 109.105 312.211 109.248C312.139 109.391 312.064 109.502 311.986 109.58C311.908 109.658 311.824 109.697 311.732 109.697C311.641 109.697 311.514 109.661 311.352 109.59C311.195 109.518 310.987 109.414 310.727 109.277C310.674 109.251 310.554 109.193 310.365 109.102C310.176 109.004 310.007 108.926 309.857 108.867C309.708 108.809 309.577 108.77 309.467 108.75C309.389 108.737 309.337 108.73 309.311 108.73C309.122 108.73 308.933 108.799 308.744 108.936C308.555 109.066 308.399 109.232 308.275 109.434C308.158 109.635 308.1 109.831 308.1 110.02ZM311.684 115.41L310.971 115.459C309.91 115.531 309.063 115.622 308.432 115.732C307.807 115.843 307.279 116.071 306.85 116.416C306.42 116.761 306.205 117.272 306.205 117.949C306.205 118.62 306.41 119.157 306.82 119.561C307.23 119.958 307.8 120.156 308.529 120.156C309.206 120.156 309.831 120.036 310.404 119.795C310.984 119.554 311.433 119.255 311.752 118.896C311.83 119.359 311.983 119.671 312.211 119.834C312.439 119.99 312.719 120.068 313.051 120.068C313.344 120.068 313.624 120.007 313.891 119.883C314.164 119.753 314.405 119.577 314.613 119.355C314.678 119.29 314.711 119.209 314.711 119.111C314.711 119.007 314.675 118.913 314.604 118.828C314.532 118.743 314.447 118.701 314.35 118.701C314.265 118.701 314.187 118.74 314.115 118.818C314.005 118.936 313.855 119.046 313.666 119.15C313.477 119.248 313.298 119.297 313.129 119.297C312.973 119.297 312.849 119.258 312.758 119.18C312.667 119.095 312.621 118.939 312.621 118.711V115.664C312.621 114.87 312.536 114.212 312.367 113.691C312.198 113.164 311.898 112.76 311.469 112.48C311.046 112.201 310.46 112.061 309.711 112.061C309.047 112.061 308.458 112.148 307.943 112.324C307.429 112.5 307.029 112.744 306.742 113.057C306.456 113.369 306.312 113.721 306.312 114.111C306.312 114.32 306.361 114.489 306.459 114.619C306.563 114.749 306.71 114.814 306.898 114.814C307.12 114.814 307.276 114.688 307.367 114.434C307.458 114.18 307.517 113.802 307.543 113.301C307.888 113.145 308.23 113.034 308.568 112.969C308.913 112.897 309.291 112.861 309.701 112.861C310.43 112.861 310.941 113.063 311.234 113.467C311.534 113.87 311.684 114.453 311.684 115.215V115.41ZM311.684 118.154C311.332 118.525 310.88 118.822 310.326 119.043C309.779 119.258 309.216 119.365 308.637 119.365C308.188 119.365 307.826 119.255 307.553 119.033C307.286 118.805 307.152 118.444 307.152 117.949C307.152 117.493 307.309 117.148 307.621 116.914C307.934 116.68 308.354 116.517 308.881 116.426C309.415 116.328 310.215 116.227 311.283 116.123L311.684 116.084V118.154ZM317.758 116.113C317.758 116.927 317.93 117.64 318.275 118.252C318.62 118.864 319.105 119.336 319.73 119.668C320.355 120 321.078 120.166 321.898 120.166C322.719 120.166 323.441 120 324.066 119.668C324.691 119.336 325.176 118.864 325.521 118.252C325.867 117.64 326.039 116.927 326.039 116.113C326.039 115.293 325.867 114.577 325.521 113.965C325.176 113.353 324.691 112.884 324.066 112.559C323.441 112.227 322.719 112.061 321.898 112.061C321.078 112.061 320.355 112.227 319.73 112.559C319.105 112.884 318.62 113.353 318.275 113.965C317.93 114.577 317.758 115.293 317.758 116.113ZM318.812 116.113C318.812 115.482 318.933 114.922 319.174 114.434C319.421 113.939 319.776 113.555 320.238 113.281C320.707 113.001 321.26 112.861 321.898 112.861C322.536 112.861 323.087 113.001 323.549 113.281C324.018 113.555 324.372 113.939 324.613 114.434C324.861 114.922 324.984 115.482 324.984 116.113C324.984 116.751 324.861 117.318 324.613 117.812C324.372 118.301 324.018 118.682 323.549 118.955C323.087 119.229 322.536 119.365 321.898 119.365C321.26 119.365 320.707 119.229 320.238 118.955C319.776 118.682 319.421 118.301 319.174 117.812C318.933 117.318 318.812 116.751 318.812 116.113Z" fill="#666565"/>
</svg>
