<svg width="273" height="102" viewBox="0 0 273 102" fill="none" xmlns="http://www.w3.org/2000/svg">
<path d="M95.4766 59.1953H87.4609V73H82.9375V38.875H94.2344C98.0781 38.875 101.031 39.75 103.094 41.5C105.172 43.25 106.211 45.7969 106.211 49.1406C106.211 51.2656 105.633 53.1172 104.477 54.6953C103.336 56.2734 101.742 57.4531 99.6953 58.2344L107.711 72.7188V73H102.883L95.4766 59.1953ZM87.4609 55.5156H94.375C96.6094 55.5156 98.3828 54.9375 99.6953 53.7812C101.023 52.625 101.688 51.0781 101.688 49.1406C101.688 47.0312 101.055 45.4141 99.7891 44.2891C98.5391 43.1641 96.7266 42.5938 94.3516 42.5781H87.4609V55.5156ZM131.828 57.2266H117.039V69.3203H134.219V73H112.539V38.875H133.984V42.5781H117.039V53.5469H131.828V57.2266ZM159.109 57.2266H144.32V69.3203H161.5V73H139.82V38.875H161.266V42.5781H144.32V53.5469H159.109V57.2266ZM185.922 57.9297H171.602V73H167.102V38.875H188.242V42.5781H171.602V54.25H185.922V57.9297ZM212.922 57.2266H198.133V69.3203H215.312V73H193.633V38.875H215.078V42.5781H198.133V53.5469H212.922V57.2266ZM233.43 59.1953H225.414V73H220.891V38.875H232.188C236.031 38.875 238.984 39.75 241.047 41.5C243.125 43.25 244.164 45.7969 244.164 49.1406C244.164 51.2656 243.586 53.1172 242.43 54.6953C241.289 56.2734 239.695 57.4531 237.648 58.2344L245.664 72.7188V73H240.836L233.43 59.1953ZM225.414 55.5156H232.328C234.562 55.5156 236.336 54.9375 237.648 53.7812C238.977 52.625 239.641 51.0781 239.641 49.1406C239.641 47.0312 239.008 45.4141 237.742 44.2891C236.492 43.1641 234.68 42.5938 232.305 42.5781H225.414V55.5156Z" fill="#029CBE"/>
<path d="M16.256 73C13.824 73 11.712 72.488 9.92 71.464C8.17067 70.3973 6.80533 68.968 5.824 67.176C4.88533 65.3413 4.416 63.2933 4.416 61.032V28.2H10.56V61.8C10.56 63.464 11.072 64.8507 12.096 65.96C13.1627 67.0267 14.5493 67.56 16.256 67.56H28.288V73H16.256ZM34.8595 73V67.56H54.2515C55.7022 67.56 56.9608 67.2187 58.0275 66.536C59.1368 65.8107 59.9902 64.8933 60.5875 63.784C61.1848 62.6747 61.4835 61.5013 61.4835 60.264C61.4835 58.344 60.8435 56.68 59.5635 55.272C58.2835 53.8213 56.5555 53.096 54.3795 53.096H45.9315C43.3715 53.096 41.1315 52.584 39.2115 51.56C37.2915 50.4933 35.7982 49.0427 34.7315 47.208C33.6648 45.3307 33.1315 43.2187 33.1315 40.872C33.1315 38.4827 33.6435 36.3493 34.6675 34.472C35.7342 32.552 37.2062 31.0373 39.0835 29.928C41.0035 28.776 43.2008 28.2 45.6755 28.2H64.6835V33.64H46.2515C44.8435 33.64 43.6062 33.9813 42.5395 34.664C41.5155 35.304 40.7048 36.1573 40.1075 37.224C39.5528 38.248 39.2755 39.3573 39.2755 40.552C39.2755 42.344 39.8728 43.9227 41.0675 45.288C42.2622 46.6533 43.9262 47.336 46.0595 47.336H54.6995C57.3875 47.336 59.6915 47.8693 61.6115 48.936C63.5315 50.0027 65.0035 51.4533 66.0275 53.288C67.0515 55.1227 67.5635 57.2133 67.5635 59.56C67.5635 62.1627 67.0302 64.488 65.9635 66.536C64.8968 68.5413 63.4035 70.12 61.4835 71.272C59.6062 72.424 57.4302 73 54.9555 73H34.8595Z" fill="#029CBE"/>
<path d="M98.1191 82.5488H96.1152V86H94.9844V77.4688H97.8086C98.7695 77.4688 99.5078 77.6875 100.023 78.125C100.543 78.5625 100.803 79.1992 100.803 80.0352C100.803 80.5664 100.658 81.0293 100.369 81.4238C100.084 81.8184 99.6855 82.1133 99.1738 82.3086L101.178 85.9297V86H99.9707L98.1191 82.5488ZM96.1152 81.6289H97.8438C98.4023 81.6289 98.8457 81.4844 99.1738 81.1953C99.5059 80.9062 99.6719 80.5195 99.6719 80.0352C99.6719 79.5078 99.5137 79.1035 99.1973 78.8223C98.8848 78.541 98.4316 78.3984 97.8379 78.3945H96.1152V81.6289ZM104.846 86.1172C103.986 86.1172 103.287 85.8359 102.748 85.2734C102.209 84.707 101.939 83.9512 101.939 83.0059V82.8066C101.939 82.1777 102.059 81.6172 102.297 81.125C102.539 80.6289 102.875 80.2422 103.305 79.9648C103.738 79.6836 104.207 79.543 104.711 79.543C105.535 79.543 106.176 79.8145 106.633 80.3574C107.09 80.9004 107.318 81.6777 107.318 82.6895V83.1406H103.023C103.039 83.7656 103.221 84.2715 103.568 84.6582C103.92 85.041 104.365 85.2324 104.904 85.2324C105.287 85.2324 105.611 85.1543 105.877 84.998C106.143 84.8418 106.375 84.6348 106.574 84.377L107.236 84.8926C106.705 85.709 105.908 86.1172 104.846 86.1172ZM104.711 80.4336C104.273 80.4336 103.906 80.5938 103.609 80.9141C103.312 81.2305 103.129 81.6758 103.059 82.25H106.234V82.168C106.203 81.6172 106.055 81.1914 105.789 80.8906C105.523 80.5859 105.164 80.4336 104.711 80.4336ZM109.111 86V80.498H108.109V79.6602H109.111V79.0098C109.111 78.3301 109.293 77.8047 109.656 77.4336C110.02 77.0625 110.533 76.877 111.197 76.877C111.447 76.877 111.695 76.9102 111.941 76.9766L111.883 77.8555C111.699 77.8203 111.504 77.8027 111.297 77.8027C110.945 77.8027 110.674 77.9062 110.482 78.1133C110.291 78.3164 110.195 78.6094 110.195 78.9922V79.6602H111.549V80.498H110.195V86H109.111ZM115.814 80.6328C115.65 80.6055 115.473 80.5918 115.281 80.5918C114.57 80.5918 114.088 80.8945 113.834 81.5V86H112.75V79.6602H113.805L113.822 80.3926C114.178 79.8262 114.682 79.543 115.334 79.543C115.545 79.543 115.705 79.5703 115.814 79.625V80.6328ZM117.994 86H116.91V79.6602H117.994V86ZM116.822 77.9785C116.822 77.8027 116.875 77.6543 116.98 77.5332C117.09 77.4121 117.25 77.3516 117.461 77.3516C117.672 77.3516 117.832 77.4121 117.941 77.5332C118.051 77.6543 118.105 77.8027 118.105 77.9785C118.105 78.1543 118.051 78.3008 117.941 78.418C117.832 78.5352 117.672 78.5938 117.461 78.5938C117.25 78.5938 117.09 78.5352 116.98 78.418C116.875 78.3008 116.822 78.1543 116.822 77.9785ZM119.477 82.7773C119.477 81.7891 119.705 81.0039 120.162 80.4219C120.619 79.8359 121.225 79.543 121.979 79.543C122.752 79.543 123.355 79.8164 123.789 80.3633L123.842 79.6602H124.832V85.8477C124.832 86.668 124.588 87.3145 124.1 87.7871C123.615 88.2598 122.963 88.4961 122.143 88.4961C121.686 88.4961 121.238 88.3984 120.801 88.2031C120.363 88.0078 120.029 87.7402 119.799 87.4004L120.361 86.75C120.826 87.3242 121.395 87.6113 122.066 87.6113C122.594 87.6113 123.004 87.4629 123.297 87.166C123.594 86.8691 123.742 86.4512 123.742 85.9121V85.3672C123.309 85.8672 122.717 86.1172 121.967 86.1172C121.225 86.1172 120.623 85.8184 120.162 85.2207C119.705 84.623 119.477 83.8086 119.477 82.7773ZM120.566 82.9004C120.566 83.6152 120.713 84.1777 121.006 84.5879C121.299 84.9941 121.709 85.1973 122.236 85.1973C122.92 85.1973 123.422 84.8867 123.742 84.2656V81.3711C123.41 80.7656 122.912 80.4629 122.248 80.4629C121.721 80.4629 121.309 80.668 121.012 81.0781C120.715 81.4883 120.566 82.0957 120.566 82.9004ZM129.104 86.1172C128.244 86.1172 127.545 85.8359 127.006 85.2734C126.467 84.707 126.197 83.9512 126.197 83.0059V82.8066C126.197 82.1777 126.316 81.6172 126.555 81.125C126.797 80.6289 127.133 80.2422 127.562 79.9648C127.996 79.6836 128.465 79.543 128.969 79.543C129.793 79.543 130.434 79.8145 130.891 80.3574C131.348 80.9004 131.576 81.6777 131.576 82.6895V83.1406H127.281C127.297 83.7656 127.479 84.2715 127.826 84.6582C128.178 85.041 128.623 85.2324 129.162 85.2324C129.545 85.2324 129.869 85.1543 130.135 84.998C130.4 84.8418 130.633 84.6348 130.832 84.377L131.494 84.8926C130.963 85.709 130.166 86.1172 129.104 86.1172ZM128.969 80.4336C128.531 80.4336 128.164 80.5938 127.867 80.9141C127.57 81.2305 127.387 81.6758 127.316 82.25H130.492V82.168C130.461 81.6172 130.312 81.1914 130.047 80.8906C129.781 80.5859 129.422 80.4336 128.969 80.4336ZM135.9 80.6328C135.736 80.6055 135.559 80.5918 135.367 80.5918C134.656 80.5918 134.174 80.8945 133.92 81.5V86H132.836V79.6602H133.891L133.908 80.3926C134.264 79.8262 134.768 79.543 135.42 79.543C135.631 79.543 135.791 79.5703 135.9 79.625V80.6328ZM140.582 86C140.52 85.875 140.469 85.6523 140.43 85.332C139.926 85.8555 139.324 86.1172 138.625 86.1172C138 86.1172 137.486 85.9414 137.084 85.5898C136.686 85.2344 136.486 84.7852 136.486 84.2422C136.486 83.582 136.736 83.0703 137.236 82.707C137.74 82.3398 138.447 82.1562 139.357 82.1562H140.412V81.6582C140.412 81.2793 140.299 80.9785 140.072 80.7559C139.846 80.5293 139.512 80.416 139.07 80.416C138.684 80.416 138.359 80.5137 138.098 80.709C137.836 80.9043 137.705 81.1406 137.705 81.418H136.615C136.615 81.1016 136.727 80.7969 136.949 80.5039C137.176 80.207 137.48 79.9727 137.863 79.8008C138.25 79.6289 138.674 79.543 139.135 79.543C139.865 79.543 140.438 79.7266 140.852 80.0938C141.266 80.457 141.48 80.959 141.496 81.5996V84.5176C141.496 85.0996 141.57 85.5625 141.719 85.9062V86H140.582ZM138.783 85.1738C139.123 85.1738 139.445 85.0859 139.75 84.9102C140.055 84.7344 140.275 84.5059 140.412 84.2246V82.9238H139.562C138.234 82.9238 137.57 83.3125 137.57 84.0898C137.57 84.4297 137.684 84.6953 137.91 84.8867C138.137 85.0781 138.428 85.1738 138.783 85.1738ZM145.738 85.2324C146.125 85.2324 146.463 85.1152 146.752 84.8809C147.041 84.6465 147.201 84.3535 147.232 84.002H148.258C148.238 84.3652 148.113 84.7109 147.883 85.0391C147.652 85.3672 147.344 85.6289 146.957 85.8242C146.574 86.0195 146.168 86.1172 145.738 86.1172C144.875 86.1172 144.188 85.8301 143.676 85.2559C143.168 84.6777 142.914 83.8887 142.914 82.8887V82.707C142.914 82.0898 143.027 81.541 143.254 81.0605C143.48 80.5801 143.805 80.207 144.227 79.9414C144.652 79.6758 145.154 79.543 145.732 79.543C146.443 79.543 147.033 79.7559 147.502 80.1816C147.975 80.6074 148.227 81.1602 148.258 81.8398H147.232C147.201 81.4297 147.045 81.0938 146.764 80.832C146.486 80.5664 146.143 80.4336 145.732 80.4336C145.182 80.4336 144.754 80.6328 144.449 81.0312C144.148 81.4258 143.998 81.998 143.998 82.748V82.9531C143.998 83.6836 144.148 84.2461 144.449 84.6406C144.75 85.0352 145.18 85.2324 145.738 85.2324ZM145.914 86.0527L145.844 86.3574C146.441 86.4629 146.74 86.8008 146.74 87.3711C146.74 87.75 146.584 88.0488 146.271 88.2676C145.959 88.4902 145.523 88.6016 144.965 88.6016L144.924 87.9746C145.232 87.9746 145.471 87.9238 145.639 87.8223C145.811 87.7207 145.896 87.5781 145.896 87.3945C145.896 87.2227 145.834 87.0957 145.709 87.0137C145.584 86.9316 145.33 86.873 144.947 86.8379L145.135 86.0527H145.914ZM153.391 86C153.328 85.875 153.277 85.6523 153.238 85.332C152.734 85.8555 152.133 86.1172 151.434 86.1172C150.809 86.1172 150.295 85.9414 149.893 85.5898C149.494 85.2344 149.295 84.7852 149.295 84.2422C149.295 83.582 149.545 83.0703 150.045 82.707C150.549 82.3398 151.256 82.1562 152.166 82.1562H153.221V81.6582C153.221 81.2793 153.107 80.9785 152.881 80.7559C152.654 80.5293 152.32 80.416 151.879 80.416C151.492 80.416 151.168 80.5137 150.906 80.709C150.645 80.9043 150.514 81.1406 150.514 81.418H149.424C149.424 81.1016 149.535 80.7969 149.758 80.5039C149.984 80.207 150.289 79.9727 150.672 79.8008C151.059 79.6289 151.482 79.543 151.943 79.543C152.674 79.543 153.246 79.7266 153.66 80.0938C154.074 80.457 154.289 80.959 154.305 81.5996V84.5176C154.305 85.0996 154.379 85.5625 154.527 85.9062V86H153.391ZM151.592 85.1738C151.932 85.1738 152.254 85.0859 152.559 84.9102C152.863 84.7344 153.084 84.5059 153.221 84.2246V82.9238H152.371C151.043 82.9238 150.379 83.3125 150.379 84.0898C150.379 84.4297 150.492 84.6953 150.719 84.8867C150.945 85.0781 151.236 85.1738 151.592 85.1738ZM154.141 77.1875C154.141 77.6094 154.02 77.9512 153.777 78.2129C153.539 78.4746 153.24 78.6055 152.881 78.6055C152.721 78.6055 152.582 78.5859 152.465 78.5469C152.348 78.5078 152.193 78.4277 152.002 78.3066C151.814 78.1855 151.678 78.1133 151.592 78.0898C151.51 78.0625 151.414 78.0488 151.305 78.0488C151.145 78.0488 151.008 78.1113 150.895 78.2363C150.781 78.3574 150.725 78.5137 150.725 78.7051L149.998 78.6641C149.998 78.2461 150.115 77.9004 150.35 77.627C150.588 77.3535 150.889 77.2168 151.252 77.2168C151.389 77.2168 151.512 77.2363 151.621 77.2754C151.73 77.3145 151.879 77.3906 152.066 77.5039C152.254 77.6172 152.396 77.6914 152.494 77.7266C152.596 77.7617 152.707 77.7793 152.828 77.7793C152.996 77.7793 153.135 77.7129 153.244 77.5801C153.357 77.4473 153.414 77.293 153.414 77.1172L154.141 77.1875ZM155.717 82.7715C155.717 82.1504 155.838 81.5918 156.08 81.0957C156.326 80.5996 156.666 80.2168 157.1 79.9473C157.537 79.6777 158.035 79.543 158.594 79.543C159.457 79.543 160.154 79.8418 160.686 80.4395C161.221 81.0371 161.488 81.832 161.488 82.8242V82.9004C161.488 83.5176 161.369 84.0723 161.131 84.5645C160.896 85.0527 160.559 85.4336 160.117 85.707C159.68 85.9805 159.176 86.1172 158.605 86.1172C157.746 86.1172 157.049 85.8184 156.514 85.2207C155.982 84.623 155.717 83.832 155.717 82.8477V82.7715ZM156.807 82.9004C156.807 83.6035 156.969 84.168 157.293 84.5938C157.621 85.0195 158.059 85.2324 158.605 85.2324C159.156 85.2324 159.594 85.0176 159.918 84.5879C160.242 84.1543 160.404 83.5488 160.404 82.7715C160.404 82.0762 160.238 81.5137 159.906 81.084C159.578 80.6504 159.141 80.4336 158.594 80.4336C158.059 80.4336 157.627 80.6465 157.299 81.0723C156.971 81.498 156.807 82.1074 156.807 82.9004ZM171.432 86.1172C170.572 86.1172 169.873 85.8359 169.334 85.2734C168.795 84.707 168.525 83.9512 168.525 83.0059V82.8066C168.525 82.1777 168.645 81.6172 168.883 81.125C169.125 80.6289 169.461 80.2422 169.891 79.9648C170.324 79.6836 170.793 79.543 171.297 79.543C172.121 79.543 172.762 79.8145 173.219 80.3574C173.676 80.9004 173.904 81.6777 173.904 82.6895V83.1406H169.609C169.625 83.7656 169.807 84.2715 170.154 84.6582C170.506 85.041 170.951 85.2324 171.49 85.2324C171.873 85.2324 172.197 85.1543 172.463 84.998C172.729 84.8418 172.961 84.6348 173.16 84.377L173.822 84.8926C173.291 85.709 172.494 86.1172 171.432 86.1172ZM171.297 80.4336C170.859 80.4336 170.492 80.5938 170.195 80.9141C169.898 81.2305 169.715 81.6758 169.645 82.25H172.82V82.168C172.789 81.6172 172.641 81.1914 172.375 80.8906C172.109 80.5859 171.75 80.4336 171.297 80.4336ZM184.586 83.293C184.48 84.1953 184.146 84.8926 183.584 85.3848C183.025 85.873 182.281 86.1172 181.352 86.1172C180.344 86.1172 179.535 85.7559 178.926 85.0332C178.32 84.3105 178.018 83.3438 178.018 82.1328V81.3125C178.018 80.5195 178.158 79.8223 178.439 79.2207C178.725 78.6191 179.127 78.1582 179.646 77.8379C180.166 77.5137 180.768 77.3516 181.451 77.3516C182.357 77.3516 183.084 77.6055 183.631 78.1133C184.178 78.6172 184.496 79.3164 184.586 80.2109H183.455C183.357 79.5312 183.145 79.0391 182.816 78.7344C182.492 78.4297 182.037 78.2773 181.451 78.2773C180.732 78.2773 180.168 78.543 179.758 79.0742C179.352 79.6055 179.148 80.3613 179.148 81.3418V82.168C179.148 83.0938 179.342 83.8301 179.729 84.377C180.115 84.9238 180.656 85.1973 181.352 85.1973C181.977 85.1973 182.455 85.0566 182.787 84.7754C183.123 84.4902 183.346 83.9961 183.455 83.293H184.586ZM187.135 86H186.051V77H187.135V86ZM190.053 86H188.969V79.6602H190.053V86ZM188.881 77.9785C188.881 77.8027 188.934 77.6543 189.039 77.5332C189.148 77.4121 189.309 77.3516 189.52 77.3516C189.73 77.3516 189.891 77.4121 190 77.5332C190.109 77.6543 190.164 77.8027 190.164 77.9785C190.164 78.1543 190.109 78.3008 190 78.418C189.891 78.5352 189.73 78.5938 189.52 78.5938C189.309 78.5938 189.148 78.5352 189.039 78.418C188.934 78.3008 188.881 78.1543 188.881 77.9785ZM192.812 79.6602L192.842 80.3633C193.307 79.8164 193.934 79.543 194.723 79.543C195.609 79.543 196.213 79.8828 196.533 80.5625C196.744 80.2578 197.018 80.0117 197.354 79.8242C197.693 79.6367 198.094 79.543 198.555 79.543C199.945 79.543 200.652 80.2793 200.676 81.752V86H199.592V81.8164C199.592 81.3633 199.488 81.0254 199.281 80.8027C199.074 80.5762 198.727 80.4629 198.238 80.4629C197.836 80.4629 197.502 80.584 197.236 80.8262C196.971 81.0645 196.816 81.3867 196.773 81.793V86H195.684V81.8457C195.684 80.9238 195.232 80.4629 194.33 80.4629C193.619 80.4629 193.133 80.7656 192.871 81.3711V86H191.787V79.6602H192.812ZM206.23 86C206.168 85.875 206.117 85.6523 206.078 85.332C205.574 85.8555 204.973 86.1172 204.273 86.1172C203.648 86.1172 203.135 85.9414 202.732 85.5898C202.334 85.2344 202.135 84.7852 202.135 84.2422C202.135 83.582 202.385 83.0703 202.885 82.707C203.389 82.3398 204.096 82.1562 205.006 82.1562H206.061V81.6582C206.061 81.2793 205.947 80.9785 205.721 80.7559C205.494 80.5293 205.16 80.416 204.719 80.416C204.332 80.416 204.008 80.5137 203.746 80.709C203.484 80.9043 203.354 81.1406 203.354 81.418H202.264C202.264 81.1016 202.375 80.7969 202.598 80.5039C202.824 80.207 203.129 79.9727 203.512 79.8008C203.898 79.6289 204.322 79.543 204.783 79.543C205.514 79.543 206.086 79.7266 206.5 80.0938C206.914 80.457 207.129 80.959 207.145 81.5996V84.5176C207.145 85.0996 207.219 85.5625 207.367 85.9062V86H206.23ZM204.432 85.1738C204.771 85.1738 205.094 85.0859 205.398 84.9102C205.703 84.7344 205.924 84.5059 206.061 84.2246V82.9238H205.211C203.883 82.9238 203.219 83.3125 203.219 84.0898C203.219 84.4297 203.332 84.6953 203.559 84.8867C203.785 85.0781 204.076 85.1738 204.432 85.1738ZM210.314 78.125V79.6602H211.498V80.498H210.314V84.4297C210.314 84.6836 210.367 84.875 210.473 85.0039C210.578 85.1289 210.758 85.1914 211.012 85.1914C211.137 85.1914 211.309 85.168 211.527 85.1211V86C211.242 86.0781 210.965 86.1172 210.695 86.1172C210.211 86.1172 209.846 85.9707 209.6 85.6777C209.354 85.3848 209.23 84.9688 209.23 84.4297V80.498H208.076V79.6602H209.23V78.125H210.314ZM213.947 86H212.863V79.6602H213.947V86ZM212.775 77.9785C212.775 77.8027 212.828 77.6543 212.934 77.5332C213.043 77.4121 213.203 77.3516 213.414 77.3516C213.625 77.3516 213.785 77.4121 213.895 77.5332C214.004 77.6543 214.059 77.8027 214.059 77.9785C214.059 78.1543 214.004 78.3008 213.895 78.418C213.785 78.5352 213.625 78.5938 213.414 78.5938C213.203 78.5938 213.043 78.5352 212.934 78.418C212.828 78.3008 212.775 78.1543 212.775 77.9785ZM216.707 85.1152H220.416V86H215.383V85.2031L218.881 80.5566H215.436V79.6602H220.24V80.4277L216.707 85.1152ZM225.555 86C225.492 85.875 225.441 85.6523 225.402 85.332C224.898 85.8555 224.297 86.1172 223.598 86.1172C222.973 86.1172 222.459 85.9414 222.057 85.5898C221.658 85.2344 221.459 84.7852 221.459 84.2422C221.459 83.582 221.709 83.0703 222.209 82.707C222.713 82.3398 223.42 82.1562 224.33 82.1562H225.385V81.6582C225.385 81.2793 225.271 80.9785 225.045 80.7559C224.818 80.5293 224.484 80.416 224.043 80.416C223.656 80.416 223.332 80.5137 223.07 80.709C222.809 80.9043 222.678 81.1406 222.678 81.418H221.588C221.588 81.1016 221.699 80.7969 221.922 80.5039C222.148 80.207 222.453 79.9727 222.836 79.8008C223.223 79.6289 223.646 79.543 224.107 79.543C224.838 79.543 225.41 79.7266 225.824 80.0938C226.238 80.457 226.453 80.959 226.469 81.5996V84.5176C226.469 85.0996 226.543 85.5625 226.691 85.9062V86H225.555ZM223.756 85.1738C224.096 85.1738 224.418 85.0859 224.723 84.9102C225.027 84.7344 225.248 84.5059 225.385 84.2246V82.9238H224.535C223.207 82.9238 222.543 83.3125 222.543 84.0898C222.543 84.4297 222.656 84.6953 222.883 84.8867C223.109 85.0781 223.4 85.1738 223.756 85.1738ZM230.711 85.2324C231.098 85.2324 231.436 85.1152 231.725 84.8809C232.014 84.6465 232.174 84.3535 232.205 84.002H233.23C233.211 84.3652 233.086 84.7109 232.855 85.0391C232.625 85.3672 232.316 85.6289 231.93 85.8242C231.547 86.0195 231.141 86.1172 230.711 86.1172C229.848 86.1172 229.16 85.8301 228.648 85.2559C228.141 84.6777 227.887 83.8887 227.887 82.8887V82.707C227.887 82.0898 228 81.541 228.227 81.0605C228.453 80.5801 228.777 80.207 229.199 79.9414C229.625 79.6758 230.127 79.543 230.705 79.543C231.416 79.543 232.006 79.7559 232.475 80.1816C232.947 80.6074 233.199 81.1602 233.23 81.8398H232.205C232.174 81.4297 232.018 81.0938 231.736 80.832C231.459 80.5664 231.115 80.4336 230.705 80.4336C230.154 80.4336 229.727 80.6328 229.422 81.0312C229.121 81.4258 228.971 81.998 228.971 82.748V82.9531C228.971 83.6836 229.121 84.2461 229.422 84.6406C229.723 85.0352 230.152 85.2324 230.711 85.2324ZM230.887 86.0527L230.816 86.3574C231.414 86.4629 231.713 86.8008 231.713 87.3711C231.713 87.75 231.557 88.0488 231.244 88.2676C230.932 88.4902 230.496 88.6016 229.938 88.6016L229.896 87.9746C230.205 87.9746 230.443 87.9238 230.611 87.8223C230.783 87.7207 230.869 87.5781 230.869 87.3945C230.869 87.2227 230.807 87.0957 230.682 87.0137C230.557 86.9316 230.303 86.873 229.92 86.8379L230.107 86.0527H230.887ZM238.363 86C238.301 85.875 238.25 85.6523 238.211 85.332C237.707 85.8555 237.105 86.1172 236.406 86.1172C235.781 86.1172 235.268 85.9414 234.865 85.5898C234.467 85.2344 234.268 84.7852 234.268 84.2422C234.268 83.582 234.518 83.0703 235.018 82.707C235.521 82.3398 236.229 82.1562 237.139 82.1562H238.193V81.6582C238.193 81.2793 238.08 80.9785 237.854 80.7559C237.627 80.5293 237.293 80.416 236.852 80.416C236.465 80.416 236.141 80.5137 235.879 80.709C235.617 80.9043 235.486 81.1406 235.486 81.418H234.396C234.396 81.1016 234.508 80.7969 234.73 80.5039C234.957 80.207 235.262 79.9727 235.645 79.8008C236.031 79.6289 236.455 79.543 236.916 79.543C237.646 79.543 238.219 79.7266 238.633 80.0938C239.047 80.457 239.262 80.959 239.277 81.5996V84.5176C239.277 85.0996 239.352 85.5625 239.5 85.9062V86H238.363ZM236.564 85.1738C236.904 85.1738 237.227 85.0859 237.531 84.9102C237.836 84.7344 238.057 84.5059 238.193 84.2246V82.9238H237.344C236.016 82.9238 235.352 83.3125 235.352 84.0898C235.352 84.4297 235.465 84.6953 235.691 84.8867C235.918 85.0781 236.209 85.1738 236.564 85.1738ZM239.113 77.1875C239.113 77.6094 238.992 77.9512 238.75 78.2129C238.512 78.4746 238.213 78.6055 237.854 78.6055C237.693 78.6055 237.555 78.5859 237.438 78.5469C237.32 78.5078 237.166 78.4277 236.975 78.3066C236.787 78.1855 236.65 78.1133 236.564 78.0898C236.482 78.0625 236.387 78.0488 236.277 78.0488C236.117 78.0488 235.98 78.1113 235.867 78.2363C235.754 78.3574 235.697 78.5137 235.697 78.7051L234.971 78.6641C234.971 78.2461 235.088 77.9004 235.322 77.627C235.561 77.3535 235.861 77.2168 236.225 77.2168C236.361 77.2168 236.484 77.2363 236.594 77.2754C236.703 77.3145 236.852 77.3906 237.039 77.5039C237.227 77.6172 237.369 77.6914 237.467 77.7266C237.568 77.7617 237.68 77.7793 237.801 77.7793C237.969 77.7793 238.107 77.7129 238.217 77.5801C238.33 77.4473 238.387 77.293 238.387 77.1172L239.113 77.1875ZM240.689 82.7715C240.689 82.1504 240.811 81.5918 241.053 81.0957C241.299 80.5996 241.639 80.2168 242.072 79.9473C242.51 79.6777 243.008 79.543 243.566 79.543C244.43 79.543 245.127 79.8418 245.658 80.4395C246.193 81.0371 246.461 81.832 246.461 82.8242V82.9004C246.461 83.5176 246.342 84.0723 246.104 84.5645C245.869 85.0527 245.531 85.4336 245.09 85.707C244.652 85.9805 244.148 86.1172 243.578 86.1172C242.719 86.1172 242.021 85.8184 241.486 85.2207C240.955 84.623 240.689 83.832 240.689 82.8477V82.7715ZM241.779 82.9004C241.779 83.6035 241.941 84.168 242.266 84.5938C242.594 85.0195 243.031 85.2324 243.578 85.2324C244.129 85.2324 244.566 85.0176 244.891 84.5879C245.215 84.1543 245.377 83.5488 245.377 82.7715C245.377 82.0762 245.211 81.5137 244.879 81.084C244.551 80.6504 244.113 80.4336 243.566 80.4336C243.031 80.4336 242.6 80.6465 242.271 81.0723C241.943 81.498 241.779 82.1074 241.779 82.9004Z" fill="#777777"/>
</svg>
