<svg width="20" height="20" viewBox="0 0 20 20" fill="none" xmlns="http://www.w3.org/2000/svg">
<g clip-path="url(#clip0)">
<path d="M10.0025 -0.000244141H9.9975C4.48375 -0.000244141 0 4.48476 0 9.99976C0 12.1873 0.705 14.2148 1.90375 15.861L0.6575 19.576L4.50125 18.3473C6.0825 19.3948 7.96875 19.9998 10.0025 19.9998C15.5162 19.9998 20 15.5135 20 9.99976C20 4.48601 15.5162 -0.000244141 10.0025 -0.000244141Z" fill="#4CAF50"/>
<path d="M15.8212 14.121C15.5799 14.8022 14.6224 15.3672 13.8587 15.5322C13.3362 15.6435 12.6537 15.7322 10.3562 14.7797C7.41744 13.5622 5.52494 10.576 5.37744 10.3822C5.23619 10.1885 4.18994 8.80099 4.18994 7.36599C4.18994 5.93099 4.91869 5.23224 5.21244 4.93224C5.45369 4.68599 5.85244 4.57349 6.23494 4.57349C6.35869 4.57349 6.46994 4.57974 6.56994 4.58474C6.86369 4.59724 7.01119 4.61474 7.20494 5.07849C7.44619 5.65974 8.03369 7.09474 8.10369 7.24224C8.17494 7.38974 8.24619 7.58974 8.14619 7.78349C8.05244 7.98349 7.96994 8.07224 7.82244 8.24224C7.67494 8.41224 7.53494 8.54224 7.38744 8.72474C7.25244 8.88349 7.09994 9.05349 7.26994 9.34724C7.43994 9.63474 8.02744 10.5935 8.89244 11.3635C10.0087 12.3572 10.9137 12.6747 11.2374 12.8097C11.4787 12.9097 11.7662 12.886 11.9424 12.6985C12.1662 12.4572 12.4424 12.0572 12.7237 11.6635C12.9237 11.381 13.1762 11.346 13.4412 11.446C13.7112 11.5397 15.1399 12.246 15.4337 12.3922C15.7274 12.5397 15.9212 12.6097 15.9924 12.7335C16.0624 12.8572 16.0624 13.4385 15.8212 14.121Z" fill="#FAFAFA"/>
</g>
<defs>
<clipPath id="clip0">
<rect width="20" height="20" fill="white" transform="translate(0 -0.000244141)"/>
</clipPath>
</defs>
</svg>
